<?xml version="1.0" encoding="iso-8859-1"?>
<!-- Generator: Adobe Illustrator 19.0.0, SVG Export Plug-In . SVG Version: 6.00 Build 0)  -->
<svg version="1.1" id="Capa_1" xmlns="http://www.w3.org/2000/svg" xmlns:xlink="http://www.w3.org/1999/xlink" x="0px" y="0px"
	 viewBox="0 0 512 512" style="enable-background:new 0 0 512 512;" xml:space="preserve">
<g>
	<g>
		<g>
			<path d="M469.333,261.561v-26.895c0-12.805-5.784-24.174-14.741-32c8.957-7.826,14.741-19.195,14.741-32V85.333
				c0-23.531-19.135-42.667-42.667-42.667h-384C19.135,42.667,0,61.802,0,85.333v85.333c0,12.805,5.784,24.174,14.741,32
				C5.784,210.492,0,221.862,0,234.667V320c0,23.531,19.135,42.667,42.667,42.667h235.207
				c5.414,59.711,55.695,106.667,116.793,106.667C459.365,469.333,512,416.698,512,352C512,315.643,495.376,283.1,469.333,261.561z
				 M21.333,85.333C21.333,73.573,30.906,64,42.667,64h384C438.427,64,448,73.573,448,85.333v85.333
				c0,11.76-9.573,21.333-21.333,21.333h-384c-11.76,0-21.333-9.573-21.333-21.333V85.333z M42.667,341.333
				c-11.76,0-21.333-9.573-21.333-21.333v-85.333c0-11.76,9.573-21.333,21.333-21.333h384c11.76,0,21.333,9.573,21.333,21.333
				v12.953c-16.023-8.22-34.121-12.953-53.333-12.953c-61.098,0-111.379,46.956-116.793,106.667H42.667z M394.667,448
				c-52.938,0-96-43.063-96-96s43.063-96,96-96s96,43.063,96,96S447.604,448,394.667,448z"/>
			<path d="M402.208,280.458c-4.167-4.167-10.917-4.167-15.083,0l-42.667,42.667c-4.167,4.167-4.167,10.917,0,15.083
				c4.167,4.167,10.917,4.167,15.083,0L384,313.75V416c0,5.896,4.771,10.667,10.667,10.667s10.667-4.771,10.667-10.667V313.75
				l24.458,24.458c2.083,2.083,4.813,3.125,7.542,3.125c2.729,0,5.458-1.042,7.542-3.125c4.167-4.167,4.167-10.917,0-15.083
				L402.208,280.458z"/>
			<path d="M74.667,170.667c5.896,0,10.667-4.771,10.667-10.667V96c0-5.896-4.771-10.667-10.667-10.667
				C68.771,85.333,64,90.104,64,96v64C64,165.896,68.771,170.667,74.667,170.667z"/>
			<path d="M117.333,170.667c5.896,0,10.667-4.771,10.667-10.667V96c0-5.896-4.771-10.667-10.667-10.667
				c-5.896,0-10.667,4.771-10.667,10.667v64C106.667,165.896,111.438,170.667,117.333,170.667z"/>
			<path d="M160,170.667c5.896,0,10.667-4.771,10.667-10.667V96c0-5.896-4.771-10.667-10.667-10.667S149.333,90.104,149.333,96v64
				C149.333,165.896,154.104,170.667,160,170.667z"/>
			<circle cx="384" cy="128" r="21.333"/>
			<circle cx="320" cy="128" r="21.333"/>
			<path d="M74.667,234.667c-5.896,0-10.667,4.771-10.667,10.667v64C64,315.229,68.771,320,74.667,320
				c5.896,0,10.667-4.771,10.667-10.667v-64C85.333,239.438,80.563,234.667,74.667,234.667z"/>
			<path d="M117.333,234.667c-5.896,0-10.667,4.771-10.667,10.667v64c0,5.896,4.771,10.667,10.667,10.667
				c5.896,0,10.667-4.771,10.667-10.667v-64C128,239.438,123.229,234.667,117.333,234.667z"/>
			<path d="M160,234.667c-5.896,0-10.667,4.771-10.667,10.667v64c0,5.896,4.771,10.667,10.667,10.667s10.667-4.771,10.667-10.667
				v-64C170.667,239.438,165.896,234.667,160,234.667z"/>
		</g>
	</g>
</g>
<g>
</g>
<g>
</g>
<g>
</g>
<g>
</g>
<g>
</g>
<g>
</g>
<g>
</g>
<g>
</g>
<g>
</g>
<g>
</g>
<g>
</g>
<g>
</g>
<g>
</g>
<g>
</g>
<g>
</g>
</svg>
