<?xml version="1.0" encoding="iso-8859-1"?>
<!-- Generator: Adobe Illustrator 16.0.0, SVG Export Plug-In . SVG Version: 6.00 Build 0)  -->
<!DOCTYPE svg PUBLIC "-//W3C//DTD SVG 1.1//EN" "http://www.w3.org/Graphics/SVG/1.1/DTD/svg11.dtd">
<svg version="1.1" id="Capa_1" xmlns="http://www.w3.org/2000/svg" xmlns:xlink="http://www.w3.org/1999/xlink" x="0px" y="0px"
	 width="66.824px" height="66.824px" viewBox="0 0 66.824 66.824" style="enable-background:new 0 0 66.824 66.824;"
	 xml:space="preserve">
<g>
	<path d="M65.66,12.408H33.755c0,0,0-0.002-0.004-0.002L5.721,3.887C5.366,3.778,4.985,3.843,4.688,4.065
		c-0.296,0.219-0.472,0.57-0.472,0.936v7.407H1.168C0.523,12.408,0,12.934,0,13.576v41.286c0,0.644,0.523,1.168,1.168,1.168h24.216
		v4.624h-4.429v1.168v1.167h24.912v-1.167v-1.168H41.44V56.03h24.216c0.646,0,1.168-0.524,1.168-1.168V13.576
		C66.828,12.93,66.306,12.408,65.66,12.408z M6.552,12.408V6.578l19.179,5.831l3.845,1.168l2.67,0.813v0.353v38.492L6.552,45.423
		V14.742v-1.168V12.408z M64.492,53.696h-29.91V14.744h4.588v4.333l2.274-1.438l2.274,1.438v-4.333h20.78v38.95h-0.007V53.696z
		 M28.288,21.885l-9.101-2.77v-1.538l9.101,2.774V21.885z M28.288,27.749l-9.101-2.771v-1.542l9.101,2.772V27.749z M28.288,33.66
		L10.08,28.121v-1.534l18.208,5.536V33.66z M28.288,39.518L10.08,33.982v-1.54l18.208,5.535V39.518z M28.288,45.435L10.08,39.896
		v-1.538l18.208,5.534V45.435z M11.638,23.135l0.471-1.546l2.743,0.832l0.488,1.838l0.798,0.243l0.807,0.243l-2.558-9.089
		l-0.876-0.264l-0.876-0.264l-2.555,7.533l0.785,0.241L11.638,23.135z M13.492,17.242l0.953,3.627l-1.915-0.582L13.492,17.242z
		 M53.386,38.192h-9.566l-4.528-9.418l1.234-0.594l4.156,8.642h7.824l4.138-9.032h3.645v1.372h-2.76L53.386,38.192z M45.964,39.794
		c-0.886,0-1.602,0.714-1.602,1.594c0,0.879,0.716,1.602,1.602,1.602c0.88,0,1.594-0.723,1.594-1.602
		C47.558,40.508,46.844,39.794,45.964,39.794z M51.857,39.794c-0.885-0.044-1.629,0.636-1.67,1.519
		c-0.041,0.879,0.639,1.624,1.52,1.663c0.881,0.046,1.627-0.634,1.665-1.517C53.418,40.578,52.738,39.832,51.857,39.794z"/>
</g>
<g>
</g>
<g>
</g>
<g>
</g>
<g>
</g>
<g>
</g>
<g>
</g>
<g>
</g>
<g>
</g>
<g>
</g>
<g>
</g>
<g>
</g>
<g>
</g>
<g>
</g>
<g>
</g>
<g>
</g>
</svg>
